# xmcd CD database file
#
# Track frame offsets:
#	150
#	14405
#	35752
#	52677
#	71312
#	88890
#	107190
#	125385
#	143130
#	169717
#	190195
#
# Disc length: 3126 seconds
#
# Revision: 7
# Processed by: cddbd v1.5.1PL0 Copyright (c) Steve Scherf et al.
# Submitted via: CDex 1.51
#
DISCID=910c340b
DTITLE=Milva - El Tango Di Astor Piazzolla CD 1
DYEAR=1998
DGENRE=Tango
TTITLE0=La muerte del angel (Instr.)
TTITLE1=Moriro in Buenos Aires
TTITLE2=Mujer Buenos Aires
TTITLE3=Fueyazo (Instr.)
TTITLE4=Los pajaros perdidos
TTITLE5=El duende de la creacion
TTITLE6=Llamada de Tambores (Instr.)
TTITLE7=Annes de solitude
TTITLE8=Tango querido
TTITLE9=Balada para un loco
TTITLE10=Mumuki (Instr.)
EXTD=YEAR: 1998
EXTT0=
EXTT1=
EXTT2=
EXTT3=
EXTT4=
EXTT5=
EXTT6=
EXTT7=
EXTT8=
EXTT9=
EXTT10=
PLAYORDER=
